<?xml version="1.0" encoding="UTF-8" standalone="no"?>
<!DOCTYPE svg PUBLIC "-//W3C//DTD SVG 1.1//EN"
 "http://www.w3.org/Graphics/SVG/1.1/DTD/svg11.dtd">
<!-- Generated by graphviz version 16.1.0 (20260904.0139)
 -->
<!-- Title: TimeRightWeb Pages: 1 -->
<svg width="436pt" height="1037pt"
 viewBox="0.00 0.00 436.00 1037.00" xmlns="http://www.w3.org/2000/svg" xmlns:xlink="http://www.w3.org/1999/xlink">
<g id="graph0" class="graph" transform="scale(1 1) rotate(0) translate(36 1001)">
<title>TimeRightWeb</title>
<polygon fill="white" stroke="none" points="-36,36 -36,-1001 399.76,-1001 399.76,36 -36,36"/>
<g id="clust1" class="cluster">
<title>cluster_timeright</title>
<path fill="white" stroke="black" stroke-width="1.5" d="M153,-8C153,-8 343.76,-8 343.76,-8 349.76,-8 355.76,-14 355.76,-20 355.76,-20 355.76,-945 355.76,-945 355.76,-951 349.76,-957 343.76,-957 343.76,-957 153,-957 153,-957 147,-957 141,-951 141,-945 141,-945 141,-20 141,-20 141,-14 147,-8 153,-8"/>
<text xml:space="preserve" text-anchor="middle" x="248.38" y="-939.7" font-family="Arial" font-size="14.00">TimeRight — Ambiente Web</text>
</g>
<!-- gerente -->
<g id="node1" class="node">
<title>gerente</title>
<text xml:space="preserve" text-anchor="middle" x="47" y="-594.3" font-family="Arial" font-size="11.00">GERENTE</text>
</g>
<!-- login -->
<g id="node3" class="node">
<title>login</title>
<ellipse fill="none" stroke="black" cx="248.38" cy="-274" rx="50.18" ry="18"/>
<text xml:space="preserve" text-anchor="middle" x="248.38" y="-270.3" font-family="Arial" font-size="11.00">Efetuar Login</text>
</g>
<!-- gerente&#45;&gt;login -->
<g id="edge1" class="edge">
<title>gerente&#45;&gt;login</title>
<path fill="none" stroke="black" d="M48.17,-580.24C49.66,-529.6 61.01,-383.11 141,-305 156.48,-289.88 178.9,-282.06 199.17,-278.05"/>
</g>
<!-- saloes -->
<g id="node4" class="node">
<title>saloes</title>
<ellipse fill="none" stroke="black" cx="248.38" cy="-693" rx="61.87" ry="18"/>
<text xml:space="preserve" text-anchor="middle" x="248.38" y="-689.3" font-family="Arial" font-size="11.00">Gerenciar Salões</text>
</g>
<!-- gerente&#45;&gt;saloes -->
<g id="edge2" class="edge">
<title>gerente&#45;&gt;saloes</title>
<path fill="none" stroke="black" d="M69.26,-615.99C87.32,-630.48 114.48,-650.43 141,-663 158.6,-671.34 178.97,-677.78 197.14,-682.52"/>
</g>
<!-- imagens -->
<g id="node5" class="node">
<title>imagens</title>
<ellipse fill="none" stroke="black" cx="248.38" cy="-761" rx="76.01" ry="24.75"/>
<text xml:space="preserve" text-anchor="middle" x="248.38" y="-764.05" font-family="Arial" font-size="11.00">Gerenciar Imagens</text>
<text xml:space="preserve" text-anchor="middle" x="248.38" y="-750.55" font-family="Arial" font-size="11.00">do Salão</text>
</g>
<!-- gerente&#45;&gt;imagens -->
<g id="edge3" class="edge">
<title>gerente&#45;&gt;imagens</title>
<path fill="none" stroke="black" d="M56.6,-615.7C70.63,-642.79 100.94,-694.49 141,-724 154.22,-733.74 170.22,-741.07 185.75,-746.53"/>
</g>
<!-- servicos -->
<g id="node6" class="node">
<title>servicos</title>
<ellipse fill="none" stroke="black" cx="248.38" cy="-829" rx="67.01" ry="18"/>
<text xml:space="preserve" text-anchor="middle" x="248.38" y="-825.3" font-family="Arial" font-size="11.00">Gerenciar Serviços</text>
</g>
<!-- gerente&#45;&gt;servicos -->
<g id="edge4" class="edge">
<title>gerente&#45;&gt;servicos</title>
<path fill="none" stroke="black" d="M51.18,-615.95C59.06,-655.04 83.19,-748.35 141,-798 154.13,-809.28 171.18,-816.46 187.77,-821.03"/>
</g>
<!-- funcionarios -->
<g id="node7" class="node">
<title>funcionarios</title>
<ellipse fill="none" stroke="black" cx="248.38" cy="-890" rx="79.64" ry="18"/>
<text xml:space="preserve" text-anchor="middle" x="248.38" y="-886.3" font-family="Arial" font-size="11.00">Gerenciar Funcionários</text>
</g>
<!-- gerente&#45;&gt;funcionarios -->
<g id="edge5" class="edge">
<title>gerente&#45;&gt;funcionarios</title>
<path fill="none" stroke="black" d="M48.92,-615.96C52.35,-663.19 68.23,-791.89 141,-860 151.51,-869.83 164.99,-876.48 178.8,-880.96"/>
</g>
<!-- func_servico -->
<g id="node8" class="node">
<title>func_servico</title>
<ellipse fill="none" stroke="black" cx="248.38" cy="-342" rx="82.38" ry="24.75"/>
<text xml:space="preserve" text-anchor="middle" x="248.38" y="-345.05" font-family="Arial" font-size="11.00">Associar Funcionário</text>
<text xml:space="preserve" text-anchor="middle" x="248.38" y="-331.55" font-family="Arial" font-size="11.00">a Serviço</text>
</g>
<!-- gerente&#45;&gt;func_servico -->
<g id="edge6" class="edge">
<title>gerente&#45;&gt;func_servico</title>
<path fill="none" stroke="black" d="M50.58,-580.18C57.5,-538.89 80.21,-435.86 141,-379 151.85,-368.85 165.64,-361.46 179.66,-356.1"/>
</g>
<!-- funcionamento -->
<g id="node9" class="node">
<title>funcionamento</title>
<ellipse fill="none" stroke="black" cx="248.38" cy="-416" rx="78.67" ry="24.75"/>
<text xml:space="preserve" text-anchor="middle" x="248.38" y="-419.05" font-family="Arial" font-size="11.00">Configurar Horários</text>
<text xml:space="preserve" text-anchor="middle" x="248.38" y="-405.55" font-family="Arial" font-size="11.00">de Funcionamento</text>
</g>
<!-- gerente&#45;&gt;funcionamento -->
<g id="edge7" class="edge">
<title>gerente&#45;&gt;funcionamento</title>
<path fill="none" stroke="black" d="M54.85,-580.11C67.39,-549.69 96.85,-487.81 141,-453 153.44,-443.19 168.65,-435.89 183.65,-430.48"/>
</g>
<!-- agenda_gerente -->
<g id="node10" class="node">
<title>agenda_gerente</title>
<ellipse fill="none" stroke="black" cx="248.38" cy="-490" rx="72.3" ry="24.75"/>
<text xml:space="preserve" text-anchor="middle" x="248.38" y="-493.05" font-family="Arial" font-size="11.00">Consultar Agenda</text>
<text xml:space="preserve" text-anchor="middle" x="248.38" y="-479.55" font-family="Arial" font-size="11.00">Semanal</text>
</g>
<!-- gerente&#45;&gt;agenda_gerente -->
<g id="edge8" class="edge">
<title>gerente&#45;&gt;agenda_gerente</title>
<path fill="none" stroke="black" d="M67.41,-580.22C85.39,-564.5 113.45,-541.82 141,-527 156.76,-518.53 174.84,-511.38 191.57,-505.7"/>
</g>
<!-- agendamentos -->
<g id="node11" class="node">
<title>agendamentos</title>
<ellipse fill="none" stroke="black" cx="248.38" cy="-564" rx="62.76" ry="24.75"/>
<text xml:space="preserve" text-anchor="middle" x="248.38" y="-567.05" font-family="Arial" font-size="11.00">Gerenciar</text>
<text xml:space="preserve" text-anchor="middle" x="248.38" y="-553.55" font-family="Arial" font-size="11.00">Agendamentos</text>
</g>
<!-- gerente&#45;&gt;agendamentos -->
<g id="edge9" class="edge">
<title>gerente&#45;&gt;agendamentos</title>
<path fill="none" stroke="black" d="M81.82,-592.23C111.49,-587.17 155.23,-579.71 190.31,-573.73"/>
</g>
<!-- bloqueios -->
<g id="node12" class="node">
<title>bloqueios</title>
<ellipse fill="none" stroke="black" cx="248.38" cy="-632" rx="66.08" ry="18"/>
<text xml:space="preserve" text-anchor="middle" x="248.38" y="-628.3" font-family="Arial" font-size="11.00">Bloquear Períodos</text>
</g>
<!-- gerente&#45;&gt;bloqueios -->
<g id="edge10" class="edge">
<title>gerente&#45;&gt;bloqueios</title>
<path fill="none" stroke="black" d="M81.82,-603.77C111.82,-608.88 156.22,-616.45 191.49,-622.47"/>
</g>
<!-- funcionario -->
<g id="node2" class="node">
<title>funcionario</title>
<text xml:space="preserve" text-anchor="middle" x="47" y="-165.3" font-family="Arial" font-size="11.00">FUNCIONÁRIO</text>
</g>
<!-- funcionario&#45;&gt;login -->
<g id="edge11" class="edge">
<title>funcionario&#45;&gt;login</title>
<path fill="none" stroke="black" d="M66.06,-186.96C83.77,-203.65 112.23,-228.1 141,-243 160.56,-253.13 183.9,-260.4 203.73,-265.34"/>
</g>
<!-- agenda_func -->
<g id="node13" class="node">
<title>agenda_func</title>
<ellipse fill="none" stroke="black" cx="248.38" cy="-58" rx="71.24" ry="24.75"/>
<text xml:space="preserve" text-anchor="middle" x="248.38" y="-61.05" font-family="Arial" font-size="11.00">Consultar Própria</text>
<text xml:space="preserve" text-anchor="middle" x="248.38" y="-47.55" font-family="Arial" font-size="11.00">Agenda</text>
</g>
<!-- funcionario&#45;&gt;agenda_func -->
<g id="edge12" class="edge">
<title>funcionario&#45;&gt;agenda_func</title>
<path fill="none" stroke="black" d="M66.58,-151.06C84.44,-134.61 112.81,-110.53 141,-95 156.76,-86.32 174.93,-79.1 191.74,-73.41"/>
</g>
<!-- detalhes -->
<g id="node14" class="node">
<title>detalhes</title>
<ellipse fill="none" stroke="black" cx="248.38" cy="-132" rx="76.54" ry="24.75"/>
<text xml:space="preserve" text-anchor="middle" x="248.38" y="-135.05" font-family="Arial" font-size="11.00">Visualizar Detalhes</text>
<text xml:space="preserve" text-anchor="middle" x="248.38" y="-121.55" font-family="Arial" font-size="11.00">do Atendimento</text>
</g>
<!-- funcionario&#45;&gt;detalhes -->
<g id="edge13" class="edge">
<title>funcionario&#45;&gt;detalhes</title>
<path fill="none" stroke="black" d="M93.74,-160.51C119.72,-155.69 152.7,-149.57 181.44,-144.24"/>
</g>
<!-- status -->
<g id="node15" class="node">
<title>status</title>
<ellipse fill="none" stroke="black" cx="248.38" cy="-206" rx="72.83" ry="24.75"/>
<text xml:space="preserve" text-anchor="middle" x="248.38" y="-209.05" font-family="Arial" font-size="11.00">Atualizar Situação</text>
<text xml:space="preserve" text-anchor="middle" x="248.38" y="-195.55" font-family="Arial" font-size="11.00">do Atendimento</text>
</g>
<!-- funcionario&#45;&gt;status -->
<g id="edge14" class="edge">
<title>funcionario&#45;&gt;status</title>
<path fill="none" stroke="black" d="M93.74,-177.49C120.41,-182.44 154.46,-188.76 183.72,-194.19"/>
</g>
</g>
</svg>
